<?xml version="1.0" standalone="no"?>
<!DOCTYPE svg PUBLIC "-//W3C//DTD SVG 20010904//EN"
 "http://www.w3.org/TR/2001/REC-SVG-20010904/DTD/svg10.dtd">
<svg version="1.0" xmlns="http://www.w3.org/2000/svg"
 width="1024.000000pt" height="434.000000pt" viewBox="0 0 1024.000000 434.000000"
 preserveAspectRatio="xMidYMid meet">
<metadata>
Created by potrace 1.16, written by Peter Selinger 2001-2019
</metadata>
<g transform="translate(0.000000,434.000000) scale(0.100000,-0.100000)"
fill="#000000" stroke="none">
<path d="M4954 4020 c-118 -59 -190 -169 -219 -335 -30 -174 -30 -651 0 -920
l6 -50 -45 86 c-58 112 -108 256 -158 459 -63 258 -106 365 -175 436 -86 88
-211 112 -318 60 -63 -31 -133 -104 -165 -173 -31 -66 -38 -178 -16 -263 16
-60 156 -419 290 -739 31 -74 54 -136 52 -138 -6 -6 -130 140 -174 204 -21 32
-54 85 -72 118 -144 255 -406 273 -519 35 -23 -50 -26 -66 -26 -170 1 -129 12
-167 85 -293 34 -58 97 -126 314 -343 l272 -271 11 -74 c26 -186 129 -346 433
-674 l111 -120 -4 -60 c-3 -33 -24 -118 -47 -190 -71 -221 -76 -211 112 -196
134 10 309 22 670 45 121 8 202 17 211 25 8 6 18 37 22 69 19 157 60 248 159
350 85 89 148 180 205 296 44 90 88 136 416 442 88 82 185 174 215 205 100
101 163 253 163 396 0 73 -4 90 -32 147 -34 70 -90 126 -156 157 -57 26 -167
25 -240 -2 -129 -48 -325 -213 -460 -388 -38 -49 -73 -90 -77 -91 -12 0 -21
90 -15 150 4 32 18 89 32 127 23 62 136 294 155 318 5 6 46 87 93 180 228 459
278 656 202 810 -65 133 -237 202 -363 145 -173 -79 -361 -420 -504 -914 -23
-81 -46 -146 -51 -146 -20 0 -1 402 33 688 30 254 33 290 22 353 -20 118 -78
203 -169 249 -37 19 -67 26 -133 28 -79 3 -90 1 -146 -28z m232 -74 c54 -25
93 -68 119 -129 19 -47 19 -163 0 -327 -61 -503 -65 -704 -19 -928 18 -87 27
-102 59 -102 12 0 27 6 32 13 6 6 27 84 48 172 82 347 214 699 332 884 46 72
129 159 175 182 68 35 149 16 217 -52 106 -106 83 -266 -93 -644 -30 -66 -81
-168 -112 -225 -110 -205 -195 -382 -220 -461 -24 -72 -26 -90 -21 -187 3 -59
8 -119 12 -133 6 -25 4 -27 -36 -33 -96 -15 -246 -112 -316 -204 -40 -53 -42
-78 -7 -94 24 -11 29 -9 87 53 99 105 186 154 298 167 l53 7 90 120 c97 131
269 308 359 368 123 84 219 105 302 66 118 -56 164 -195 115 -350 -31 -101
-76 -167 -174 -260 -568 -536 -537 -504 -586 -603 -65 -131 -112 -199 -201
-292 -53 -56 -89 -104 -109 -146 -28 -60 -70 -202 -70 -238 0 -24 -28 -27
-580 -60 -91 -6 -193 -13 -227 -16 -35 -4 -63 -4 -63 -1 0 3 15 59 34 124 45
157 53 228 29 270 -10 18 -85 107 -168 199 -277 308 -365 455 -365 616 l0 58
-72 67 c-40 37 -166 160 -279 273 -278 276 -331 360 -333 530 -1 74 3 92 27
143 36 72 88 110 150 110 84 0 153 -58 236 -201 71 -121 158 -228 316 -389
136 -140 165 -157 186 -110 8 19 1 40 -45 132 -55 111 -128 283 -296 695 -123
301 -132 330 -133 420 0 88 15 130 69 190 91 100 198 107 291 17 58 -56 101
-161 162 -404 64 -255 97 -346 187 -523 97 -191 161 -285 193 -285 42 0 47 24
23 122 -54 221 -83 642 -64 925 18 257 48 358 128 428 83 72 170 88 260 46z"/>
</g>
</svg>
