<?xml version="1.0" standalone="no"?>
<!DOCTYPE svg PUBLIC "-//W3C//DTD SVG 20010904//EN"
 "http://www.w3.org/TR/2001/REC-SVG-20010904/DTD/svg10.dtd">
<svg version="1.0" xmlns="http://www.w3.org/2000/svg"
 width="1024.000000pt" height="434.000000pt" viewBox="0 0 1024.000000 434.000000"
 preserveAspectRatio="xMidYMid meet">
<metadata>
Created by potrace 1.16, written by Peter Selinger 2001-2019
</metadata>
<g transform="translate(0.000000,434.000000) scale(0.100000,-0.100000)"
fill="#000000" stroke="none">
<path d="M5194 3700 c-96 -22 -189 -130 -224 -258 l-11 -44 -50 47 c-147 137
-363 124 -467 -28 -34 -49 -72 -151 -72 -194 0 -51 -14 -60 -49 -31 -51 43
-112 61 -188 56 -114 -8 -193 -63 -242 -168 -40 -85 -42 -239 -5 -362 5 -16
-3 -18 -80 -18 -84 0 -87 -1 -125 -35 -24 -22 -46 -54 -55 -82 -21 -61 -21
-203 0 -274 33 -109 116 -247 215 -354 22 -24 49 -67 60 -96 53 -148 169 -292
448 -559 l183 -175 -6 -70 c-3 -38 -22 -134 -42 -212 -38 -155 -40 -182 -9
-193 11 -3 184 17 385 46 201 29 443 63 539 75 101 14 179 29 187 37 10 10 12
42 7 141 -6 136 5 229 34 286 9 16 40 58 69 93 29 34 65 83 80 108 30 50 74
185 74 225 0 19 11 33 44 55 143 94 316 278 388 411 89 165 92 350 8 498 -98
173 -306 304 -534 337 -101 14 -88 -13 -116 248 -11 102 -25 203 -31 225 -15
54 -52 125 -85 165 -72 85 -214 128 -330 100z m202 -115 c51 -30 96 -91 119
-161 9 -27 26 -140 38 -251 l22 -201 -84 -16 c-128 -26 -229 -74 -290 -140
-14 -14 -28 -26 -32 -26 -12 0 -67 142 -93 241 -48 187 -43 339 14 456 31 63
79 111 122 125 43 13 139 -1 184 -27z m-648 -150 c124 -37 168 -116 228 -413
24 -120 57 -282 74 -362 60 -287 31 -402 -96 -387 -81 9 -195 120 -248 242
-33 76 -95 208 -201 430 l-47 98 4 106 c3 93 7 114 34 172 53 112 134 149 252
114z m-523 -294 c57 -26 138 -120 184 -215 86 -177 210 -445 236 -511 36 -90
45 -197 21 -244 -20 -39 -74 -64 -114 -55 -86 21 -249 135 -334 235 -25 30
-63 90 -82 133 -24 52 -55 99 -90 135 -46 50 -55 66 -75 141 -40 146 -20 281
51 347 56 52 134 66 203 34z m1600 -286 c172 -44 328 -162 396 -300 32 -65 34
-76 34 -165 -1 -75 -6 -107 -24 -153 -54 -136 -212 -320 -373 -434 -62 -44
-84 -66 -89 -88 -4 -17 -13 -55 -19 -85 -20 -86 -62 -170 -119 -235 -107 -122
-131 -192 -131 -386 l0 -127 -27 -6 c-16 -3 -59 -10 -98 -15 -38 -5 -236 -33
-438 -61 -203 -29 -370 -51 -372 -49 -2 2 8 49 21 104 14 55 27 145 30 200 6
99 6 101 -22 137 -16 20 -101 103 -189 185 -88 83 -185 179 -216 214 -65 75
-151 190 -146 196 2 2 24 -6 48 -17 59 -26 124 -25 173 3 95 54 102 176 21
371 -6 13 9 6 52 -23 79 -54 165 -93 220 -99 113 -12 223 92 223 212 l0 27 33
-24 c78 -59 140 -74 214 -52 55 16 117 74 129 120 l6 26 35 -27 c41 -31 109
-59 171 -69 l44 -7 -25 -27 c-35 -36 -95 -138 -107 -180 -10 -37 -1 -65 25
-75 28 -10 46 6 76 72 70 155 138 195 379 222 128 14 142 21 138 63 l-3 32
-65 -2 c-36 -1 -155 -4 -265 -5 -192 -3 -202 -2 -253 21 -70 32 -107 76 -122
145 -12 60 -2 144 24 193 41 79 166 154 299 179 85 16 225 11 312 -11z m-1897
-271 c69 -34 90 -63 162 -229 165 -376 182 -435 140 -487 -13 -18 -31 -28 -47
-28 -52 0 -146 62 -249 165 -155 153 -234 306 -234 450 0 67 11 109 37 137 26
29 126 24 191 -8z"/>
</g>
</svg>
