<?xml version="1.0" standalone="no"?>
<!DOCTYPE svg PUBLIC "-//W3C//DTD SVG 20010904//EN"
 "http://www.w3.org/TR/2001/REC-SVG-20010904/DTD/svg10.dtd">
<svg version="1.0" xmlns="http://www.w3.org/2000/svg"
 width="1024.000000pt" height="434.000000pt" viewBox="0 0 1024.000000 434.000000"
 preserveAspectRatio="xMidYMid meet">
<metadata>
Created by potrace 1.16, written by Peter Selinger 2001-2019
</metadata>
<g transform="translate(0.000000,434.000000) scale(0.100000,-0.100000)"
fill="#000000" stroke="none">
<path d="M4410 3980 c-151 -32 -275 -163 -315 -332 -19 -82 -19 -259 0 -431
20 -183 78 -525 114 -670 26 -106 27 -119 12 -124 -9 -3 -35 -14 -58 -25 -120
-56 -164 -211 -103 -370 11 -29 20 -54 20 -55 0 -2 -15 -3 -32 -3 -64 0 -133
-58 -175 -148 -21 -45 -24 -64 -21 -120 6 -86 34 -145 112 -232 34 -37 81
-105 105 -151 41 -76 67 -106 274 -312 l229 -227 -11 -79 c-7 -43 -25 -127
-41 -186 -29 -109 -29 -129 -5 -139 8 -3 121 10 252 29 131 18 324 45 428 60
105 14 208 28 231 31 68 9 66 6 68 175 1 180 9 206 96 304 62 69 107 159 123
243 10 56 14 61 67 98 123 86 274 252 330 364 72 141 64 298 -22 432 -44 70
-148 162 -222 198 -73 35 -201 70 -255 70 -65 0 -65 1 -20 181 47 189 101 344
204 584 90 210 105 259 105 351 0 163 -86 285 -250 354 -76 32 -190 38 -261
15 -101 -34 -227 -187 -285 -347 -84 -230 -132 -509 -160 -923 l-7 -110 -14
45 c-36 121 -51 292 -63 765 -10 354 -15 397 -60 489 -70 145 -234 228 -390
196z m140 -80 c55 -15 122 -62 154 -108 62 -89 67 -123 76 -507 15 -556 32
-692 121 -973 31 -94 58 -129 92 -117 23 9 27 37 27 185 1 486 79 953 199
1200 52 107 138 193 215 215 84 25 190 -2 280 -71 67 -51 98 -110 104 -200 6
-97 -4 -133 -105 -369 -93 -219 -176 -464 -220 -650 l-28 -119 -65 -12 c-86
-16 -144 -38 -202 -75 -192 -124 -198 -417 -10 -512 15 -8 52 -20 82 -28 30
-7 57 -14 59 -15 2 -2 -12 -21 -31 -43 -33 -39 -69 -104 -82 -147 -8 -26 18
-57 43 -52 9 2 30 32 47 66 68 135 113 159 359 192 88 12 111 25 100 60 -7 22
-10 22 -84 16 -280 -24 -384 -18 -464 27 -103 58 -116 219 -25 322 73 83 180
120 343 119 172 -1 304 -48 411 -147 144 -133 174 -304 81 -466 -58 -101 -175
-224 -297 -314 -75 -54 -76 -55 -88 -117 -22 -106 -49 -161 -113 -235 -99
-114 -119 -172 -119 -349 l0 -102 -192 -27 c-353 -50 -623 -86 -626 -83 -1 2
7 37 18 77 12 41 24 120 27 178 l6 104 -201 196 c-185 180 -282 284 -282 303
0 4 20 -1 45 -12 167 -72 331 -91 396 -47 70 47 87 133 44 225 -30 64 -30 65
-7 53 36 -19 176 -42 217 -35 70 11 117 46 141 103 51 122 -26 246 -390 620
-106 110 -196 176 -252 187 -38 7 -37 4 -78 190 -23 105 -70 372 -98 559 -7
50 -13 174 -13 280 l0 190 33 70 c49 103 111 161 205 191 51 16 101 17 147 4z
m-211 -1565 c73 -25 128 -73 299 -256 255 -275 307 -355 285 -433 -12 -44 -63
-69 -128 -62 -137 16 -282 86 -395 193 -46 43 -113 101 -149 128 -53 40 -73
63 -99 115 -68 135 -49 259 48 308 52 26 82 27 139 7z m-142 -489 c32 -22 121
-102 199 -180 181 -183 226 -265 175 -327 -28 -35 -118 -31 -241 11 -232 77
-388 215 -398 349 -5 67 11 110 61 161 29 30 35 32 88 28 46 -3 70 -12 116
-42z"/>
</g>
</svg>
